<?xml version="1.0" standalone="no"?>
<!DOCTYPE svg PUBLIC "-//W3C//DTD SVG 20010904//EN"
 "http://www.w3.org/TR/2001/REC-SVG-20010904/DTD/svg10.dtd">
<svg version="1.0" xmlns="http://www.w3.org/2000/svg"
 width="866.000000pt" height="866.000000pt" viewBox="0 0 866.000000 866.000000"
 preserveAspectRatio="xMidYMid meet">
<metadata>
Created by potrace 1.14, written by Peter Selinger 2001-2017
</metadata>
<g transform="translate(0.000000,866.000000) scale(0.100000,-0.100000)"
fill="#000000" stroke="none">
<path d="M4080 8645 c-724 -79 -1326 -432 -1696 -995 -158 -241 -262 -508
-321 -820 -25 -136 -25 -610 0 -755 106 -603 395 -1027 947 -1388 320 -209
664 -363 1279 -572 330 -112 512 -185 746 -300 302 -149 495 -278 678 -455
223 -214 352 -439 414 -722 26 -119 25 -438 -1 -558 -115 -527 -526 -936
-1142 -1139 -486 -160 -987 -161 -1429 -3 -136 49 -367 165 -497 251 -210 137
-382 277 -631 513 -82 78 -152 137 -156 132 -5 -5 -129 -150 -276 -323 l-267
-314 138 -139 c414 -417 867 -703 1394 -879 576 -192 1119 -227 1704 -108
1236 251 1998 1176 1963 2384 -18 624 -216 1103 -622 1510 -389 390 -880 657
-1745 950 -530 179 -858 325 -1110 493 -439 293 -620 611 -620 1088 0 337 113
600 369 855 134 133 260 221 432 303 444 210 927 232 1384 61 311 -116 676
-361 1023 -688 35 -33 64 -58 66 -56 1 2 117 139 257 304 140 165 260 308 267
317 11 13 3 25 -55 80 -402 385 -839 675 -1233 820 -382 141 -853 198 -1260
153z"/>
</g>
</svg>
