<?xml version="1.0" standalone="no"?>
<!DOCTYPE svg PUBLIC "-//W3C//DTD SVG 20010904//EN"
 "http://www.w3.org/TR/2001/REC-SVG-20010904/DTD/svg10.dtd">
<svg version="1.0" xmlns="http://www.w3.org/2000/svg"
 width="700.000000pt" height="700.000000pt" viewBox="0 0 700.000000 700.000000"
 preserveAspectRatio="xMidYMid meet">
<metadata>
Created by potrace 1.14, written by Peter Selinger 2001-2017
</metadata>
<g transform="translate(0.000000,700.000000) scale(0.100000,-0.100000)"
fill="#000000" stroke="none">
<path d="M3390 6622 l0 -378 -68 -17 c-134 -35 -245 -99 -355 -206 -116 -112
-188 -235 -228 -390 -28 -107 -28 -287 0 -396 68 -258 253 -472 492 -565 l68
-26 -389 -895 -388 -894 -356 -3 -356 -2 0 -80 0 -80 314 0 313 0 -229 -512
c-357 -801 -418 -946 -418 -1001 0 -87 53 -168 148 -223 23 -14 42 -30 42 -37
0 -7 -67 -215 -150 -462 -82 -247 -150 -451 -150 -452 0 -2 10 -3 23 -3 20 0
82 133 623 1343 l601 1342 247 3 246 2 0 -115 0 -114 28 -15 c15 -7 41 -16 57
-20 34 -7 124 16 136 36 5 7 9 61 9 121 l0 107 243 0 243 0 601 -1342 c500
-1118 605 -1344 622 -1346 12 -2 21 1 21 6 0 5 -67 214 -150 463 -131 397
-148 455 -134 464 9 6 36 22 60 37 80 50 133 150 120 230 -7 44 -114 294 -420
978 l-225 505 315 3 314 2 0 80 0 80 -357 0 -358 0 -384 888 c-211 488 -386
891 -389 895 -2 5 6 11 17 14 12 3 53 21 91 39 222 106 385 297 452 529 30
105 32 323 4 425 -22 81 -73 193 -117 257 -106 155 -289 286 -460 330 l-69 17
0 378 0 378 -150 0 -150 0 0 -378z m300 -682 c73 -21 168 -75 218 -123 127
-122 188 -330 148 -501 -63 -268 -325 -448 -593 -408 -160 24 -318 134 -391
270 -106 198 -77 447 71 609 144 157 341 212 547 153z m75 -2405 c125 -291
243 -565 261 -607 l33 -78 -204 0 -205 0 0 118 c0 80 -4 124 -13 136 -27 37
-142 43 -194 10 -22 -14 -23 -21 -23 -139 l0 -125 -206 0 c-161 0 -205 3 -201
13 2 6 116 271 252 587 136 316 251 586 256 599 5 13 11 22 13 20 2 -2 106
-242 231 -534z"/>
</g>
</svg>
